<svg xmlns="http://www.w3.org/2000/svg" width="1440" height="1080" viewBox="0 0 1440 1080">
  <rect width="1440" height="1080" fill="#E3C781"/>
  <path d="M0 820C250 730 415 890 650 820S1060 690 1440 820V1080H0Z" fill="#DCA485" opacity=".5"/>
  <rect x="105" y="105" width="1230" height="870" rx="64" fill="#FBF7EF"/>
  <rect x="150" y="150" width="1140" height="780" rx="42" fill="#F7E7BD"/>
  <g transform="rotate(-7 421 504)">
    <rect x="222" y="300" width="420" height="386" rx="32" fill="#D7B26B"/>
    <rect x="247" y="325" width="370" height="336" rx="19" fill="#33251E"/>
    <path d="M284 493C284 414 354 365 432 365S580 414 580 493V597H284Z" fill="#C87833"/>
    <path d="M294 485C338 448 369 464 407 441C444 419 493 430 541 472" fill="none" stroke="#F3C77A" stroke-width="12" stroke-linecap="round" opacity=".8"/>
    <path d="M305 542H559" stroke="#F5DDA5" stroke-width="10" stroke-linecap="round" opacity=".7"/>
  </g>
  <g transform="rotate(8 865 365)">
    <rect x="738" y="242" width="162" height="260" rx="30" fill="#8D3524"/>
    <rect x="758" y="210" width="122" height="51" rx="14" fill="#33251E"/>
    <rect x="760" y="300" width="118" height="128" rx="12" fill="#F1E8DA"/>
    <circle cx="819" cy="354" r="31" fill="#E3C781"/>
    <path d="M799 358q20-32 40 0q-20 32-40 0" fill="#5F856E"/>
  </g>
  <g transform="rotate(-6 1064 410)">
    <rect x="960" y="289" width="170" height="270" rx="31" fill="#5F856E"/>
    <rect x="979" y="254" width="132" height="54" rx="14" fill="#33251E"/>
    <rect x="983" y="348" width="124" height="132" rx="12" fill="#F1E8DA"/>
    <path d="M1005 422q42-57 80 0q-40 46-80 0" fill="#C87833"/>
    <circle cx="1045" cy="403" r="9" fill="#E3C781"/><circle cx="1021" cy="428" r="8" fill="#8D3524"/><circle cx="1070" cy="430" r="8" fill="#8D3524"/>
  </g>
  <g>
    <ellipse cx="815" cy="715" rx="200" ry="115" fill="#F1E8DA"/>
    <circle cx="720" cy="695" r="75" fill="#C87833"/>
    <circle cx="855" cy="672" r="76" fill="#D69948"/>
    <circle cx="942" cy="744" r="70" fill="#C87833"/>
    <g fill="#33251E"><circle cx="693" cy="664" r="10"/><circle cx="741" cy="722" r="9"/><circle cx="758" cy="674" r="8"/><circle cx="824" cy="636" r="9"/><circle cx="876" cy="698" r="10"/><circle cx="853" cy="728" r="8"/><circle cx="919" cy="717" r="9"/><circle cx="966" cy="768" r="8"/><circle cx="934" cy="781" r="8"/></g>
  </g>
  <g transform="rotate(26 493 780)">
    <ellipse cx="363" cy="753" rx="40" ry="67" fill="#8D5533"/>
    <rect x="388" y="736" width="289" height="33" rx="16" fill="#8D5533"/>
    <ellipse cx="686" cy="752" rx="17" ry="17" fill="#8D5533"/>
  </g>
  <g transform="rotate(-23 525 846)">
    <ellipse cx="405" cy="815" rx="40" ry="67" fill="#A76A41"/>
    <rect x="430" y="798" width="289" height="33" rx="16" fill="#A76A41"/>
    <ellipse cx="728" cy="814" rx="17" ry="17" fill="#A76A41"/>
  </g>
  <path d="M1168 681l14 31 32 14-32 14-14 31-14-31-32-14 32-14z" fill="#8D3524"/>
  <path d="M238 778l9 20 21 9-21 9-9 20-9-20-21-9 21-9z" fill="#8D3524"/>
</svg>
